<svg xmlns="http://www.w3.org/2000/svg" viewBox="0 0 512 512">
  <defs>
    <linearGradient id="g" x1="0" y1="0" x2="1" y2="1">
      <stop offset="0%" stop-color="#16707F"/>
      <stop offset="100%" stop-color="#082B35"/>
    </linearGradient>
  </defs>
  <rect width="512" height="512" rx="112" fill="url(#g)"/>
  <g fill="none" stroke="#fff" stroke-width="22" stroke-linecap="round" stroke-linejoin="round">
    <path d="M96 290l46-110a60 60 0 0 1 56-40h116a60 60 0 0 1 56 40l46 110"/>
    <path d="M96 290v90a18 18 0 0 0 18 18h44a18 18 0 0 0 18-18v-22h160v22a18 18 0 0 0 18 18h44a18 18 0 0 0 18-18v-90"/>
  </g>
  <circle cx="170" cy="290" r="28" fill="#E36414"/>
  <circle cx="342" cy="290" r="28" fill="#E36414"/>
  <text x="256" y="450" text-anchor="middle" font-family="ui-sans-serif,system-ui,sans-serif" font-size="48" font-weight="700" fill="#fff" letter-spacing="6">MOTARA</text>
</svg>
